<svg id="Ebene_1" data-name="Ebene 1" xmlns="http://www.w3.org/2000/svg" xmlns:xlink="http://www.w3.org/1999/xlink" viewBox="0 0 457.64 133.9"><defs><style>.cls-1,.cls-6{fill:none;}.cls-2{fill:#fff;}.cls-3{clip-path:url(#clip-path);}.cls-4{fill:#d87710;}.cls-5{clip-path:url(#clip-path-2);}.cls-6{stroke:#fff;stroke-width:0.2px;}</style><clipPath id="clip-path" transform="translate(0 0)"><rect class="cls-1" width="82" height="82"/></clipPath><clipPath id="clip-path-2" transform="translate(0 0)"><rect class="cls-1" x="78.18" y="80.58" width="378.7" height="44.12" transform="translate(-5 14.14) rotate(-3)"/></clipPath></defs><title>Logo-Economizer</title><g id="Gruppe_186" data-name="Gruppe 186"><g id="Gruppe_58" data-name="Gruppe 58"><circle id="Ellipse_6" data-name="Ellipse 6" class="cls-2" cx="41" cy="41" r="41"/><g id="Gruppe_11" data-name="Gruppe 11"><g class="cls-3"><g id="Gruppe_10" data-name="Gruppe 10"><g id="Gruppe_9" data-name="Gruppe 9"><path id="Pfad_6" data-name="Pfad 6" class="cls-4" d="M61.06,5.24a41,41,0,0,0-50.51,8.3C13.3,23.1,21.17,32,32.42,36.76c.12.06.25.09.38.14a47.08,47.08,0,0,1,2.37-7.08C40.5,17.25,50.4,8.4,61.06,5.24m-52.71,11A41,41,0,0,0,53.5,80.05a26.08,26.08,0,0,1-4.2-1.37c-12.47-5.3-19.07-19.33-17.7-34.61C19,38,10.54,27.34,8.35,16.21m67.5,8a23.54,23.54,0,0,0,1-3.07A41.26,41.26,0,0,0,64.5,7.41c-8.71,3.25-16.63,10.76-21,21.16a42.23,42.23,0,0,0-3,10.69c15.28,3.16,30.11-2.72,35.34-15M65.56,73.83A40.92,40.92,0,0,0,81.29,33.45C74.19,46.23,57.2,51.77,40.21,47.27,41,58.39,46.6,68,56,72a23.52,23.52,0,0,0,9.55,1.84" transform="translate(0 0)"/></g></g></g></g></g><g id="Gruppe_51" data-name="Gruppe 51"><g class="cls-5"><g id="Gruppe_35" data-name="Gruppe 35"><g id="Gruppe_33" data-name="Gruppe 33"><path id="Pfad_16" data-name="Pfad 16" class="cls-2" d="M104.32,132.51l-.21-4-19.69,1-.83-15.83,18.21-1-.21-4.06-18.21.95-.77-14.54,18.71-1-.21-4L77.48,91.34l2.23,42.46Zm38-7.56a38.76,38.76,0,0,1-10.12,2.33c-10.89.57-16.88-5.3-17.47-16.63s4.8-17.87,15.51-18.43a31.82,31.82,0,0,1,10.31,1.25l.58-4.1a31.73,31.73,0,0,0-11.37-1.45c-13.59.71-20.82,9.93-20.13,23.18.71,13.55,8.89,21.28,22.06,20.59a33.23,33.23,0,0,0,11.64-2.77Zm9.31-16.31C151,98.11,156.07,90.5,165.06,90c9.35-.49,15.13,6.19,15.7,17.1.55,10.53-4.48,18.15-13.46,18.62-9.35.49-15.13-6.19-15.7-17.1m-5.17.27c.7,13.5,9.51,21.38,21,20.78,11.33-.6,19.17-9.91,18.49-22.85-.71-13.49-9.51-21.37-21-20.77-11.32.6-19.16,9.91-18.48,22.84m83.11,17-2.23-42.46-1.78.09,2.08,39.75L196.48,85.1l-2.27.12,2.22,42.46,1.85-.1-2.09-39.8,31.07,38.28Zm11-21.9c-.66-12.63,6-20.52,16.42-21.07s17.93,6.54,18.59,19.23-6,20.52-16.42,21.07-17.93-6.54-18.59-19.23m-2,0c.72,13.87,9.45,21.44,20.71,20.85s19.07-9.22,18.36-22.89-9.45-21.38-20.71-20.79-19.08,9.15-18.36,22.83m86.08-25.7-13.88,41.14L291.92,80.1l-2.9.15L286.38,123l1.85-.09,2.43-40.79,19.17,39.65,2-.1,14.12-41.39,7.35,40.27,2-.11-7.82-42.16Zm20.46-1.07-2,.1,2.23,42.46,2-.11Zm43.81,40.27-.09-1.72-30.4,1.59,27.69-40.31-.1-2-31.32,1.64.09,1.73L383.89,77l-27.63,40.25.11,2Zm31.52-1.65-.09-1.66-20.43,1.07-1-19.17,18.83-1-.1-1.79-18.82,1-.95-18.06,19.38-1-.09-1.79-21.35,1.12L398,117.12ZM457.44,114,444,95.67c1.38-.87,8.53-4.4,8.11-12.41s-5.71-11.26-13-10.87L427,73l2.22,42.46,2-.1-1-18.37,11.88-.62,13,17.73ZM430.12,95.23,429,74.58l10-.52c6.65-.35,10.83,2.89,11.17,9.43.39,7.33-6.73,10.55-7.81,11.1Z" transform="translate(0 0)"/></g><g id="Gruppe_34" data-name="Gruppe 34"><path id="Pfad_17" data-name="Pfad 17" class="cls-6" d="M104.32,132.51l-.21-4-19.69,1-.83-15.83,18.21-1-.21-4.06-18.21.95-.77-14.54,18.71-1-.21-4L77.48,91.34l2.23,42.46Zm38-7.56a38.76,38.76,0,0,1-10.12,2.33c-10.89.57-16.88-5.3-17.47-16.63s4.8-17.87,15.51-18.43a31.82,31.82,0,0,1,10.31,1.25l.58-4.1a31.73,31.73,0,0,0-11.37-1.45c-13.59.71-20.82,9.93-20.13,23.18.71,13.55,8.89,21.28,22.06,20.59a33.23,33.23,0,0,0,11.64-2.77Zm9.31-16.31C151,98.11,156.07,90.5,165.06,90c9.35-.49,15.13,6.19,15.7,17.1.55,10.53-4.48,18.15-13.46,18.62-9.35.49-15.13-6.2-15.7-17.1Zm-5.17.28c.7,13.49,9.51,21.37,21,20.77,11.32-.6,19.17-9.9,18.49-22.84-.71-13.5-9.51-21.38-21-20.78-11.32.6-19.16,9.91-18.48,22.85Zm83.11,17-2.23-42.45-1.78.09,2.08,39.75L196.48,85.1l-2.27.12,2.22,42.46,1.85-.1-2.09-39.8,31.07,38.28Zm11-21.89c-.66-12.63,6-20.52,16.42-21.07s17.93,6.54,18.59,19.23-6,20.52-16.42,21.07S241.2,116.74,240.54,104.05Zm-2,0c.72,13.87,9.45,21.44,20.71,20.85s19.07-9.22,18.36-22.89-9.45-21.38-20.71-20.79S237.79,90.41,238.51,104.09Zm86.08-25.7-13.88,41.14L291.92,80.1l-2.9.15L286.38,123l1.85-.09,2.43-40.79,19.17,39.65,2-.1,14.12-41.39,7.35,40.27,2-.11-7.82-42.16Zm20.46-1.07-2,.1,2.23,42.46,2-.11Zm43.81,40.27-.09-1.72-30.4,1.59,27.69-40.31-.1-2-31.32,1.64.09,1.73L383.89,77l-27.63,40.25.11,2Zm31.52-1.65-.09-1.66-20.43,1.07-1-19.17,18.83-1-.1-1.79-18.82,1-.95-18.06,19.38-1-.09-1.79-21.35,1.12L398,117.12ZM457.44,114,444,95.67c1.38-.87,8.53-4.4,8.11-12.41s-5.71-11.26-13-10.87L427,73l2.22,42.46,2-.1-1-18.37,11.88-.62,13,17.73ZM430.12,95.23,429,74.58l10-.52c6.65-.35,10.83,2.89,11.17,9.43.39,7.33-6.73,10.55-7.81,11.1Z" transform="translate(0 0)"/></g></g></g></g></g></svg>